<mxfile host="app.diagrams.net" modified="2020-04-23T20:56:15.422Z" agent="5.0 (Windows NT 10.0; Win64; x64) AppleWebKit/537.36 (KHTML, like Gecko) Chrome/81.0.4044.113 Safari/537.36" etag="U5ZjX7LfyM_PfIlQsZyy" version="13.0.1" type="github">
  <diagram id="7iB0_tMo-tiH9Vbazfqp" name="Page-1">
    <mxGraphModel dx="566" dy="890" grid="1" gridSize="10" guides="1" tooltips="1" connect="1" arrows="1" fold="1" page="1" pageScale="1" pageWidth="850" pageHeight="1100" math="0" shadow="0">
      <root>
        <mxCell id="0" />
        <mxCell id="1" parent="0" />
        <mxCell id="xEx0JI6-JLEh29n-Wk1Z-22" value="" style="rounded=0;whiteSpace=wrap;html=1;" parent="1" vertex="1">
          <mxGeometry x="150" y="520" width="590" height="620" as="geometry" />
        </mxCell>
        <mxCell id="xEx0JI6-JLEh29n-Wk1Z-11" value="" style="rounded=0;whiteSpace=wrap;html=1;" parent="1" vertex="1">
          <mxGeometry x="150" y="130" width="590" height="370" as="geometry" />
        </mxCell>
        <mxCell id="xEx0JI6-JLEh29n-Wk1Z-1" value="Precondition:&lt;br&gt;User is logged into&lt;br&gt;account" style="rounded=0;whiteSpace=wrap;html=1;fillColor=#f8cecc;strokeColor=#b85450;" parent="1" vertex="1">
          <mxGeometry x="370" y="40" width="120" height="60" as="geometry" />
        </mxCell>
        <mxCell id="xEx0JI6-JLEh29n-Wk1Z-2" value="User Clicks on Their Name&amp;nbsp;&lt;br&gt;on the Main Menu" style="rounded=0;whiteSpace=wrap;html=1;fillColor=#dae8fc;strokeColor=#6c8ebf;" parent="1" vertex="1">
          <mxGeometry x="310" y="160" width="240" height="80" as="geometry" />
        </mxCell>
        <mxCell id="xEx0JI6-JLEh29n-Wk1Z-3" value="" style="endArrow=classic;html=1;exitX=0.5;exitY=1;exitDx=0;exitDy=0;entryX=0.5;entryY=0;entryDx=0;entryDy=0;" parent="1" source="xEx0JI6-JLEh29n-Wk1Z-2" target="xEx0JI6-JLEh29n-Wk1Z-6" edge="1">
          <mxGeometry width="50" height="50" relative="1" as="geometry">
            <mxPoint x="530" y="390" as="sourcePoint" />
            <mxPoint x="430" y="310" as="targetPoint" />
          </mxGeometry>
        </mxCell>
        <mxCell id="xEx0JI6-JLEh29n-Wk1Z-6" value="User Clicks &#39;Your Channel&#39;" style="rounded=0;whiteSpace=wrap;html=1;fillColor=#dae8fc;strokeColor=#6c8ebf;" parent="1" vertex="1">
          <mxGeometry x="310" y="280" width="240" height="80" as="geometry" />
        </mxCell>
        <mxCell id="xEx0JI6-JLEh29n-Wk1Z-7" value="" style="endArrow=classic;html=1;exitX=0.5;exitY=1;exitDx=0;exitDy=0;entryX=0.5;entryY=0;entryDx=0;entryDy=0;" parent="1" source="xEx0JI6-JLEh29n-Wk1Z-6" target="xEx0JI6-JLEh29n-Wk1Z-8" edge="1">
          <mxGeometry width="50" height="50" relative="1" as="geometry">
            <mxPoint x="510" y="230" as="sourcePoint" />
            <mxPoint x="430" y="430" as="targetPoint" />
          </mxGeometry>
        </mxCell>
        <mxCell id="xEx0JI6-JLEh29n-Wk1Z-8" value="User Clicks &#39;Uploads&#39; Button" style="rounded=0;whiteSpace=wrap;html=1;fillColor=#dae8fc;strokeColor=#6c8ebf;" parent="1" vertex="1">
          <mxGeometry x="310" y="400" width="240" height="80" as="geometry" />
        </mxCell>
        <mxCell id="xEx0JI6-JLEh29n-Wk1Z-9" value="" style="endArrow=classic;html=1;exitX=0.5;exitY=1;exitDx=0;exitDy=0;entryX=0.5;entryY=0;entryDx=0;entryDy=0;" parent="1" source="xEx0JI6-JLEh29n-Wk1Z-8" target="xEx0JI6-JLEh29n-Wk1Z-10" edge="1">
          <mxGeometry width="50" height="50" relative="1" as="geometry">
            <mxPoint x="550" y="570" as="sourcePoint" />
            <mxPoint x="430" y="520" as="targetPoint" />
          </mxGeometry>
        </mxCell>
        <mxCell id="xEx0JI6-JLEh29n-Wk1Z-10" value="Get Variables ($user, $conn)&amp;nbsp;" style="rounded=0;whiteSpace=wrap;html=1;fillColor=#dae8fc;strokeColor=#6c8ebf;" parent="1" vertex="1">
          <mxGeometry x="310" y="550" width="240" height="80" as="geometry" />
        </mxCell>
        <mxCell id="xEx0JI6-JLEh29n-Wk1Z-12" value="Channel.php" style="text;html=1;strokeColor=none;fillColor=none;align=center;verticalAlign=middle;whiteSpace=wrap;rounded=0;" parent="1" vertex="1">
          <mxGeometry x="180" y="300" width="40" height="20" as="geometry" />
        </mxCell>
        <mxCell id="xEx0JI6-JLEh29n-Wk1Z-13" value="" style="endArrow=classic;html=1;exitX=0.5;exitY=1;exitDx=0;exitDy=0;" parent="1" source="xEx0JI6-JLEh29n-Wk1Z-10" edge="1">
          <mxGeometry width="50" height="50" relative="1" as="geometry">
            <mxPoint x="470" y="690" as="sourcePoint" />
            <mxPoint x="430" y="670" as="targetPoint" />
          </mxGeometry>
        </mxCell>
        <mxCell id="xEx0JI6-JLEh29n-Wk1Z-14" value="check_user($username, $conn)" style="rhombus;whiteSpace=wrap;html=1;fillColor=#fff2cc;strokeColor=#d6b656;" parent="1" vertex="1">
          <mxGeometry x="317.5" y="670" width="225" height="80" as="geometry" />
        </mxCell>
        <mxCell id="xEx0JI6-JLEh29n-Wk1Z-15" value="" style="endArrow=classic;html=1;exitX=1;exitY=0.5;exitDx=0;exitDy=0;" parent="1" source="xEx0JI6-JLEh29n-Wk1Z-14" edge="1">
          <mxGeometry width="50" height="50" relative="1" as="geometry">
            <mxPoint x="570" y="750" as="sourcePoint" />
            <mxPoint x="600" y="710" as="targetPoint" />
          </mxGeometry>
        </mxCell>
        <mxCell id="xEx0JI6-JLEh29n-Wk1Z-16" value="Username not Valid" style="rounded=0;whiteSpace=wrap;html=1;" parent="1" vertex="1">
          <mxGeometry x="600" y="680" width="120" height="60" as="geometry" />
        </mxCell>
        <mxCell id="xEx0JI6-JLEh29n-Wk1Z-17" value="" style="endArrow=classic;html=1;exitX=0.5;exitY=1;exitDx=0;exitDy=0;entryX=0.5;entryY=0;entryDx=0;entryDy=0;" parent="1" source="xEx0JI6-JLEh29n-Wk1Z-14" target="xEx0JI6-JLEh29n-Wk1Z-18" edge="1">
          <mxGeometry width="50" height="50" relative="1" as="geometry">
            <mxPoint x="540" y="810" as="sourcePoint" />
            <mxPoint x="430" y="790" as="targetPoint" />
          </mxGeometry>
        </mxCell>
        <mxCell id="xEx0JI6-JLEh29n-Wk1Z-18" value="Query DB to Retrieve Video&lt;br&gt;Information Associated with User" style="rounded=0;whiteSpace=wrap;html=1;fillColor=#e1d5e7;strokeColor=#9673a6;" parent="1" vertex="1">
          <mxGeometry x="310" y="790" width="240" height="80" as="geometry" />
        </mxCell>
        <mxCell id="xEx0JI6-JLEh29n-Wk1Z-19" value="" style="endArrow=classic;html=1;exitX=0.5;exitY=1;exitDx=0;exitDy=0;" parent="1" source="xEx0JI6-JLEh29n-Wk1Z-18" edge="1">
          <mxGeometry width="50" height="50" relative="1" as="geometry">
            <mxPoint x="490" y="930" as="sourcePoint" />
            <mxPoint x="430" y="910" as="targetPoint" />
          </mxGeometry>
        </mxCell>
        <mxCell id="xEx0JI6-JLEh29n-Wk1Z-20" value="&lt;span style=&quot;font-family: , &amp;#34;consolas&amp;#34; , &amp;#34;liberation mono&amp;#34; , &amp;#34;menlo&amp;#34; , monospace&quot;&gt;$video_query = &quot;&lt;/span&gt;&lt;span style=&quot;font-family: , &amp;#34;consolas&amp;#34; , &amp;#34;liberation mono&amp;#34; , &amp;#34;menlo&amp;#34; , monospace&quot;&gt;SELECT * FROM Video WHERE USER_ID=&#39;$user_id&#39; ORDER BY DATE&lt;/span&gt;&lt;span style=&quot;font-family: , &amp;#34;consolas&amp;#34; , &amp;#34;liberation mono&amp;#34; , &amp;#34;menlo&amp;#34; , monospace&quot;&gt;&quot;;&lt;/span&gt;" style="rounded=0;whiteSpace=wrap;html=1;fillColor=#e1d5e7;strokeColor=#9673a6;" parent="1" vertex="1">
          <mxGeometry x="310" y="910" width="240" height="80" as="geometry" />
        </mxCell>
        <mxCell id="xEx0JI6-JLEh29n-Wk1Z-23" value="php/channel_script.php" style="text;html=1;strokeColor=none;fillColor=none;align=center;verticalAlign=middle;whiteSpace=wrap;rounded=0;" parent="1" vertex="1">
          <mxGeometry x="210" y="660" width="40" height="20" as="geometry" />
        </mxCell>
        <mxCell id="xEx0JI6-JLEh29n-Wk1Z-27" value="" style="endArrow=classic;html=1;exitX=0.5;exitY=1;exitDx=0;exitDy=0;entryX=0.5;entryY=0;entryDx=0;entryDy=0;" parent="1" source="xEx0JI6-JLEh29n-Wk1Z-20" target="xEx0JI6-JLEh29n-Wk1Z-30" edge="1">
          <mxGeometry width="50" height="50" relative="1" as="geometry">
            <mxPoint x="460" y="1080" as="sourcePoint" />
            <mxPoint x="430" y="1030" as="targetPoint" />
          </mxGeometry>
        </mxCell>
        <mxCell id="xEx0JI6-JLEh29n-Wk1Z-30" value="Display User&#39;s Uploads&lt;br&gt;with Information" style="rounded=0;whiteSpace=wrap;html=1;fillColor=#dae8fc;strokeColor=#6c8ebf;" parent="1" vertex="1">
          <mxGeometry x="310" y="1030" width="240" height="80" as="geometry" />
        </mxCell>
      </root>
    </mxGraphModel>
  </diagram>
</mxfile>
